<svg xmlns="http://www.w3.org/2000/svg" viewBox="0 0 800 800" width="800" height="800">

  <path transform="matrix(0.90300,0,0,-0.90300,150.321,629.362)" d="M104 398Q104 424 84 424Q69 424 55.0 411.0Q41 398 18 370H9Q61 439 105.0 479.5Q149 520 193 520Q222 520 239.5 499.0Q257 478 257 435Q257 394 242 345L178 126H187L219 199Q287 361 349.5 440.5Q412 520 473 520Q507 520 527.5 497.0Q548 474 548 430Q548 395 533 347L480 178Q469 145 469 122Q469 89 492 89Q504 89 515.0 98.5Q526 108 536.5 121.0Q547 134 551 138H560Q520 88 496.0 60.0Q472 32 441.0 10.0Q410 -12 380 -12Q351 -12 331.0 11.0Q311 34 311 79Q311 120 328 172L386 353Q392 373 392 385Q392 409 372 409Q345 409 312.0 358.5Q279 308 228 189L147 0H-7L96 354Q104 384 104 398Z" fill="#24523C"/>
</svg>