<svg xmlns="http://www.w3.org/2000/svg" viewBox="0 0 1200 630" width="1200" height="630">

  <path transform="matrix(0.18167,0,0,-0.18167,169.272,367.320)" d="M104 398Q104 424 84 424Q69 424 55.0 411.0Q41 398 18 370H9Q61 439 105.0 479.5Q149 520 193 520Q222 520 239.5 499.0Q257 478 257 435Q257 394 242 345L178 126H187L219 199Q287 361 349.5 440.5Q412 520 473 520Q507 520 527.5 497.0Q548 474 548 430Q548 395 533 347L480 178Q469 145 469 122Q469 89 492 89Q504 89 515.0 98.5Q526 108 536.5 121.0Q547 134 551 138H560Q520 88 496.0 60.0Q472 32 441.0 10.0Q410 -12 380 -12Q351 -12 331.0 11.0Q311 34 311 79Q311 120 328 172L386 353Q392 373 392 385Q392 409 372 409Q345 409 312.0 358.5Q279 308 228 189L147 0H-7L96 354Q104 384 104 398Z" fill="#24523C"/>
  <path transform="matrix(0.18167,0,0,-0.18167,272.276,367.320)" d="M192 520Q221 520 239.0 500.0Q257 480 257 437Q257 399 241 345L193 178Q183 144 183 123Q183 89 206 89Q218 89 229.5 100.0Q241 111 263 138H272Q232 88 208.0 60.0Q184 32 153.5 10.0Q123 -12 93 -12Q64 -12 45.0 10.0Q26 32 26 78Q26 118 42 176L94 354Q102 384 102 398Q102 424 82 424Q67 424 52.5 410.5Q38 397 17 370H8Q62 440 104.5 480.0Q147 520 192 520ZM163 641Q163 676 188.5 699.0Q214 722 252 722Q287 722 310.5 699.0Q334 676 334 640Q334 605 308.5 582.0Q283 559 245 559Q209 559 186.0 582.0Q163 605 163 641Z" fill="#24523C"/>
  <path transform="matrix(0.18167,0,0,-0.18167,322.960,367.320)" d="M147 -191Q215 -191 247 -83L380 369H371L341 310L313 252Q261 141 231.0 87.0Q201 33 170 9Q156 -3 140.0 -10.0Q124 -17 96 -27Q61 -39 44.5 -50.0Q28 -61 28 -83Q28 -105 45.5 -130.5Q63 -156 91.0 -173.5Q119 -191 147 -191ZM44 -23Q96 -17 112 -11V-8Q86 -6 62.0 11.5Q38 29 23.0 60.0Q8 91 8 133Q8 219 70.0 309.5Q132 400 220.0 460.0Q308 520 378 520Q409 520 437.5 509.0Q466 498 524 471L566 520H571L448 90Q410 -41 325.0 -122.5Q240 -204 123 -204Q73 -204 20.0 -189.0Q-33 -174 -68.5 -148.0Q-104 -122 -104 -91Q-104 -57 -64.5 -43.5Q-25 -30 44 -23ZM196 109Q212 109 229.0 129.5Q246 150 268.0 191.0Q290 232 330 315L401 461Q364 500 335 500Q298 500 258.0 450.0Q218 400 191.5 325.0Q165 250 165 179Q165 142 173.5 125.5Q182 109 196 109Z" fill="#24523C"/>
  <path transform="matrix(0.18167,0,0,-0.18167,422.150,367.320)" d="M187 690 131 707V712L363 780H364L175 126H184L215 198Q264 312 300.0 380.0Q336 448 371.5 484.0Q407 520 445 520Q473 520 498.0 502.0Q523 484 538.5 450.5Q554 417 554 373Q554 288 509.5 197.5Q465 107 400.0 47.5Q335 -12 279 -12Q255 -12 241.0 0.0Q227 12 227 33Q227 54 238.0 70.0Q249 86 260 96Q279 78 308.0 65.5Q337 53 362 53Q395 53 412.5 79.5Q430 106 430 173Q430 226 420.5 278.5Q411 331 394.5 365.0Q378 399 358 399Q332 399 301.5 349.0Q271 299 224 189L144 0H-10Z" fill="#24523C"/>
  <path transform="matrix(0.18167,0,0,-0.18167,525.336,367.320)" d="M121 496H66V508H143Q190 526 236.0 561.0Q282 596 306 639H311L274 508H376V496H271L184 191Q175 160 175 138Q175 113 185.5 101.0Q196 89 212 89Q229 89 244.0 101.0Q259 113 279 138H288Q234 69 189.5 28.5Q145 -12 97 -12Q62 -12 40.0 14.5Q18 41 18 93Q18 140 35 198Z" fill="#24523C"/>
  <path transform="matrix(0.18167,0,0,-0.18167,581.833,367.320)" d="M273 520Q331 520 365.0 498.5Q399 477 399 441Q399 420 388.0 404.5Q377 389 359 379Q336 434 303.0 469.0Q270 504 229 504Q205 504 191.5 491.5Q178 479 178 458Q178 438 193.5 412.5Q209 387 251 337Q303 276 322.5 239.5Q342 203 342 167Q342 120 310.5 79.0Q279 38 226.0 13.0Q173 -12 110 -12Q50 -12 17.5 10.0Q-15 32 -15 69Q-15 112 30 137Q57 77 95.5 43.5Q134 10 172 10Q196 10 210.0 23.5Q224 37 224 60Q224 84 207.0 114.0Q190 144 145 198Q92 263 72.0 299.0Q52 335 52 366Q52 407 82.5 442.5Q113 478 164.0 499.0Q215 520 273 520Z" fill="#24523C"/>
  <path transform="matrix(0.18167,0,0,-0.18167,652.501,367.320)" d="M121 496H66V508H143Q190 526 236.0 561.0Q282 596 306 639H311L274 508H376V496H271L184 191Q175 160 175 138Q175 113 185.5 101.0Q196 89 212 89Q229 89 244.0 101.0Q259 113 279 138H288Q234 69 189.5 28.5Q145 -12 97 -12Q62 -12 40.0 14.5Q18 41 18 93Q18 140 35 198Z" fill="#24523C"/>
  <path transform="matrix(0.18167,0,0,-0.18167,708.999,367.320)" d="M331 315 402 461Q365 500 336 500Q299 500 259.0 450.0Q219 400 192.0 325.0Q165 250 165 179Q165 142 174.0 125.5Q183 109 197 109Q213 109 230.0 129.5Q247 150 269.0 191.0Q291 232 331 315ZM379 520Q410 520 438.5 509.0Q467 498 525 471L566 518H571L475 178Q465 142 465 122Q465 89 487 89Q499 89 510.5 100.0Q522 111 544 138H553Q512 86 489.0 59.0Q466 32 435.5 10.0Q405 -12 375 -12Q346 -12 327.0 10.5Q308 33 308 79Q308 119 324 176L380 369H371L341 309L305 234Q259 138 233.0 91.0Q207 44 179.0 16.0Q151 -12 118 -12Q90 -12 65.0 5.5Q40 23 24.5 56.0Q9 89 9 133Q9 219 71.0 309.5Q133 400 221.0 460.0Q309 520 379 520Z" fill="#24523C"/>
  <path transform="matrix(0.18167,0,0,-0.18167,811.277,367.320)" d="M104 398Q104 424 84 424Q69 424 55.0 411.0Q41 398 18 370H9Q61 439 105.0 479.5Q149 520 193 520Q222 520 239.5 499.0Q257 478 257 435Q257 394 242 345L178 126H187L219 199Q287 361 349.5 440.5Q412 520 473 520Q507 520 527.5 497.0Q548 474 548 430Q548 395 533 347L480 178Q469 145 469 122Q469 89 492 89Q504 89 515.0 98.5Q526 108 536.5 121.0Q547 134 551 138H560Q520 88 496.0 60.0Q472 32 441.0 10.0Q410 -12 380 -12Q351 -12 331.0 11.0Q311 34 311 79Q311 120 328 172L386 353Q392 373 392 385Q392 409 372 409Q345 409 312.0 358.5Q279 308 228 189L147 0H-7L96 354Q104 384 104 398Z" fill="#24523C"/>
  <path transform="matrix(0.18167,0,0,-0.18167,914.281,367.320)" d="M465 122Q465 89 487 89Q499 89 510.5 100.0Q522 111 544 138H553Q547 131 511.5 85.0Q476 39 440.5 13.5Q405 -12 375 -12Q346 -12 327.0 10.5Q308 33 308 79Q308 119 324 176L380 369H371L341 309L305 234Q259 138 233.0 91.0Q207 44 179.0 16.0Q151 -12 118 -12Q90 -12 65.0 5.5Q40 23 24.5 56.0Q9 89 9 133Q9 219 71.0 309.5Q133 400 221.0 460.0Q309 520 379 520Q400 520 421 514L471 690L411 707V712L647 780H648L475 178Q465 142 465 122ZM197 109Q213 109 230.0 129.5Q247 150 269.0 191.0Q291 232 331 315L402 461Q365 500 336 500Q299 500 259.0 450.0Q219 400 192.0 325.0Q165 250 165 179Q165 142 174.0 125.5Q183 109 197 109Z" fill="#24523C"/>
</svg>